<?xml version="1.0" encoding="utf-8"?><svg version="1.1" id="Layer_1" xmlns="http://www.w3.org/2000/svg" xmlns:xlink="http://www.w3.org/1999/xlink" x="0px" y="0px"  viewBox="0 0 40 40" style="enable-background:new 0 0 40 40;" xml:space="preserve"><style type="text/css"> .st0{fill:#77BA3F;}</style><g id="biodynamic"> <path id="bb" class="st0" d="M14.9,28c1.7,0.8,3,2.3,3.5,2.9c-1.9,0.5-7.3,1.4-7.8-5.7c0,0,7.1-2.7,8.3,4.4  C17.7,28.7,14.9,28,14.9,28z M20.5,23.5c-0.6-2.2-3.6-6.2-3.6-6.2c1.4,2.6,1.6,5.6,1.6,6.9C15.2,24.3,8.4,23,13.1,9.6  C13.1,9.7,26.4,14.5,20.5,23.5z M22.3,35.3c-0.9-9-2.4-10-2.4-10c0.6,1.9-0.3,8-0.6,10.2h0.3C20.6,35.5,21.5,35.5,22.3,35.3z"/> <path id="b" d="M29.8,25.3H24V14.6h5.3c2,0,3.3,1.1,3.3,2.8c0,0.8-0.4,1.8-1.6,2.3c1.4,0.4,2,1.6,2,2.5  C32.9,23.8,31.7,25.3,29.8,25.3z M28.7,16.5h-2.4V19h2.4c1,0,1.5-0.5,1.5-1.3C30.1,17,29.7,16.5,28.7,16.5z M29.1,20.8h-2.8v2.6  h2.8c1,0,1.4-0.5,1.4-1.3S30,20.8,29.1,20.8z"/> <path id="oo_1_" d="M20,2c9.9,0,18,8.1,18,18s-8.1,18-18,18S2,29.9,2,20S10.1,2,20,2z M20,35.6c8.6,0,15.6-7,15.6-15.6  S28.6,4.4,20,4.4S4.4,11.4,4.4,20S11.4,35.6,20,35.6z"/></g></svg>