<svg version="1.1" id="Layer_1" xmlns="http://www.w3.org/2000/svg" xmlns:xlink="http://www.w3.org/1999/xlink" x="0px" y="0px"  viewBox="0 0 40 40" style="enable-background:new 0 0 40 40;" xml:space="preserve"><style type="text/css"> .st0{fill:#CBE7B5;} .st1{fill:#95D35F;}</style><g id="lighter-glass-bottle"> <path id="gg" class="st0" d="M20,35.6c-2.2,0-4.2-0.4-6.1-1.2c0-1.6,0-3.2-0.1-4.7c-0.1-2-0.2-4.1,0.3-5.8c0.3-1,0.8-1.9,1.4-2.7  l0.5-0.7l0.4-0.4c0.5-0.6,0.9-1.1,1-2.1c0.1-0.9,0.1-1.9,0.1-3c0-1.7,0.1-3.6,0.1-5.3c0-0.2-0.1-0.4-0.1-0.7c0-0.4,0-0.8,0-1.1  c0-0.1,0.1-0.2,0.1-0.4c0-0.2,0-0.6,0.1-0.7c0.4-0.2,1.1-0.4,1.8-0.4h0.8c0.7,0,1.4,0.2,1.8,0.4c0.1,0.1,0,0.5,0.1,0.7  c0,0.2,0.1,0.3,0.1,0.4c0,0.3,0.1,0.8,0,1.1c0,0.3-0.1,0.5-0.1,0.7c0,1.7,0.1,3.6,0.1,5.3c0,1,0,2.1,0.1,3c0.1,1,0.5,1.5,1,2.1  c0.1,0.1,0.2,0.3,0.4,0.4l0.5,0.7c0.6,0.8,1.1,1.7,1.4,2.7c0.5,1.7,0.4,3.7,0.3,5.8c-0.1,1.5-0.1,3.1-0.1,4.7  C24.2,35.2,22.2,35.6,20,35.6z M18.2,29.6c-1.5-0.7-3.1-2.6-3.3-3.7c-0.1,1.4,0.8,6.5,6.7,7c-0.5,0.3-2.3,0.1-2.7-0.2  c0.2,0.4,1.5,1.1,3,0.8c-0.1,0.2-0.3,0.6-1,0.8c0.8,0,1.9-0.5,2.3-0.5c0.7-0.2,2.5,0.6,2.8,0.5c-8.8-2.6-7.7-11.4-7.7-11.4  c0.5,5,2.7,7.7,4.3,9.3c0.6,0.6,1.3,1,1.9,1.3c-0.1-0.3-0.3-1.1,0-1.8c0.5-0.8,0.5-1.4,0.4-1.9c0-0.4-0.5,1.7-1.2,1.9  c0.9-2.2,0.9-3.7,0.5-4.1c0,0.9-0.8,3.6-1,3.8c0.6-2.3,1.2-6.5-1.3-8.5c0,0.6-0.3,2.4-0.7,2.6c0.4-1.9,0.5-3.8-2.7-5.2  C16.3,21,12.8,25.4,18.2,29.6z"/> <path id="g" class="st1" d="M15.6,21.2c-0.6,0.8-1.1,1.7-1.4,2.7c-0.5,1.7-0.4,3.7-0.3,5.8c0,1.5,0.1,3.1,0,4.8  c-1.9-0.8-3.6-2-5.2-3.6c-0.8-0.8-1.4-1.6-2-2.4c0.1-0.6,0.1-1.1,0.3-1.7c0.3-1,0.8-1.9,1.4-2.7c0.2-0.3,0.4-0.5,0.6-0.7L9.3,23  c0.5-0.6,0.9-1.1,1-2.1c0.1-0.9,0.1-1.9,0.1-3c0-1.7,0.1-3.6,0.1-5.3c0-0.3-0.1-0.5-0.1-0.7c0-0.4,0-0.8,0-1.1  c0-0.2,0.1-0.2,0.1-0.4c0-0.3,0-0.6,0.1-0.7c0.5-0.3,1.1-0.4,1.8-0.4h0.8c0.7,0,1.4,0.2,1.8,0.4c0.1,0.1,0,0.5,0.1,0.7  c0,0.2,0.1,0.3,0.2,0.4c0,0.3,0,0.8,0,1.1c0,0.2-0.1,0.4-0.1,0.7c0,1.7,0.1,3.6,0.1,5.3c0,1,0,2.1,0.1,3  C15.5,20.9,15.5,21.1,15.6,21.2L15.6,21.2z M33,26.9c-0.3-1-0.9-1.9-1.4-2.7l-0.5-0.7c-0.1-0.1-0.3-0.3-0.4-0.4  c-0.5-0.6-0.9-1.1-1-2.1c-0.1-0.9-0.1-1.9-0.1-3c0-1.7-0.1-3.6-0.1-5.3c0-0.2,0.1-0.4,0.1-0.7c0-0.4,0-0.8,0-1.1  c0-0.1-0.1-0.2-0.1-0.4c0-0.3,0-0.6-0.1-0.7c-0.4-0.2-1.1-0.4-1.8-0.4h-0.8c-0.7,0-1.4,0.2-1.8,0.4c-0.1,0.1,0,0.5-0.1,0.7  c0,0.2-0.1,0.3-0.1,0.4c0,0.3-0.1,0.8,0,1.1c0,0.3,0.1,0.5,0.1,0.7c0,1.7-0.1,3.6-0.1,5.3c0,1,0,2.1-0.1,3l-0.1,0.4  c0.5,0.8,1,1.6,1.4,2.5c0.5,1.7,0.4,3.7,0.3,5.8c-0.1,1.5-0.1,3.2-0.1,4.8c1.7-0.8,3.3-1.8,4.8-3.2c0.9-0.9,1.8-1.9,2.4-2.9  C33.2,27.8,33.1,27.3,33,26.9z"/> <path id="oo_2_" d="M20,2c9.9,0,18,8.1,18,18s-8.1,18-18,18S2,29.9,2,20S10.1,2,20,2z M20,35.6c8.6,0,15.6-7,15.6-15.6  S28.6,4.4,20,4.4S4.4,11.4,4.4,20S11.4,35.6,20,35.6z"/></g></svg>