<?xml version="1.0" encoding="UTF-8" standalone="no"?><svg version="1.1" id="Layer_1" xmlns="http://www.w3.org/2000/svg" xmlns:xlink="http://www.w3.org/1999/xlink" x="0px" y="0px"  viewBox="0 0 40 40" style="enable-background:new 0 0 40 40;" xml:space="preserve"><style   type="text/css"   id="style2"> .st0{fill:#77BA3F;}</style><g   id="g34"   transform="translate(-0.35355322)"><path     style="fill:#7db2b0;stroke-width:0.0201739"     d="m 19.881369,38.108287 c 0.04775,-0.0042 0.120829,-0.0042 0.162403,2.01e-4 0.04157,0.0043 0.0025,0.0078 -0.08681,0.0077 -0.08932,0 -0.123337,-0.0036 -0.07559,-0.0078 z m 1.400724,0 c 0.04775,-0.0042 0.120828,-0.0042 0.162403,2.01e-4 0.04157,0.0043 0.0025,0.0078 -0.08681,0.0077 -0.08932,0 -0.123337,-0.0036 -0.07559,-0.0078 z M 19.104345,38.08142 C 11.458393,37.694945 4.4422158,31.596215 2.937998,24.029013 2.7823945,23.246226 2.6741748,22.43116 2.66116,21.943986 2.65339,21.653285 2.65339,21.653285 2.671936,21.863796 c 0.76542,8.689985 7.682585,15.543181 16.330907,16.179878 0.648057,0.04771 0.703026,0.06815 0.101502,0.03775 z m 2.730396,0.0017 c 0.07257,-0.0086 0.273547,-0.02637 0.446607,-0.03952 8.446772,-0.641769 15.482304,-7.573062 16.209452,-15.969289 0.05392,-0.622648 0.06808,-0.725781 0.05779,-0.421015 -0.283878,8.403912 -8.09467,16.141536 -16.592042,16.436618 -0.182363,0.0063 -0.216631,0.0044 -0.121802,-0.0068 z M 19.662604,35.77486 C 12.317502,35.326627 6.2497187,29.916223 5.1389883,22.824724 5.0771758,22.43008 5.0752093,22.38505 5.1197874,22.38505 c 0.018056,0 0.4854411,0.10375 1.0386337,0.230555 0.5531929,0.126806 1.0211294,0.230556 1.0398593,0.230556 0.030481,0 0.035462,-0.04786 0.047474,-0.456099 0.09337,-3.173327 1.1047416,-6.643407 2.6361113,-9.044665 0.066051,-0.103571 0.112447,-0.195863 0.1031012,-0.205093 C 9.954793,13.110504 8.5029023,12.463238 7.9797573,12.246363 7.7006276,12.130647 7.4641671,12.028469 7.4542894,12.019301 7.4069236,11.975337 8.2906316,10.82175 8.8205767,10.235758 12.409753,6.2669942 17.005278,4.5050228 22.360565,5.0443886 c 4.069428,0.4098583 7.556933,2.3001972 10.354349,5.6123844 0.566526,0.670777 1.557674,2.095643 1.571368,2.258987 0.0021,0.02467 -0.307601,0.158774 -1.295949,0.561208 -1.4982,0.610034 -1.367592,0.538845 -1.235459,0.673388 1.563884,1.592417 2.668612,5.410628 2.516889,8.698979 -0.01545,0.334805 -0.110511,0.302273 0.864015,0.295683 0.943162,-0.0064 0.853411,-0.06319 0.74471,0.471366 -1.49041,7.329385 -8.555526,12.626071 -16.217884,12.158476 z m -1.2698,-5.260788 c 0.252846,-0.06504 0.573463,-0.235125 0.799723,-0.424247 0.1171,-0.09788 0.729924,-2.820223 0.672174,-2.985995 -0.290014,-0.832477 -0.943773,-1.144405 -1.81853,-0.867674 -0.248834,0.07872 -0.238613,0.09071 -0.221748,-0.260133 0.01409,-0.293022 0.01409,-0.293022 -0.05082,-0.413312 -0.507945,-0.941344 -1.348773,-1.146252 -2.22404,-0.541991 -0.156051,0.107732 -0.158202,0.108075 -0.190817,0.03031 -0.465246,-1.10926 -1.320564,-1.290692 -2.126271,-0.451027 -0.203242,0.211808 -0.228381,0.224104 -0.228381,0.111707 0,-0.291302 -0.713696,-0.861942 -1.079207,-0.862888 -0.67545,-0.0017 -1.081929,0.408581 -1.082143,1.092389 -3.17e-4,1.010144 0.06935,2.093951 0.14408,2.241382 0.30832,0.608283 0.771778,0.852746 1.420609,0.749341 0.1037,-0.01653 0.1037,-0.01653 0.216848,0.151413 0.491861,0.730046 1.235865,0.854881 1.93826,0.32522 0.127203,-0.09592 0.133642,-0.09202 0.175346,0.10626 0.270041,1.283895 1.074629,1.653731 1.992126,0.915696 0.147307,-0.118494 0.150238,-0.117171 0.237391,0.107152 0.302256,0.777972 0.81947,1.132262 1.425402,0.976396 z m 4.010346,-1.339517 c 0.669443,-0.234041 0.856705,-1.063617 0.318235,-1.409797 -0.288631,-0.18556 -0.216704,-0.659949 0.106554,-0.702769 0.07333,-0.0097 0.117695,0.01489 0.775538,0.430143 1.1358,0.716953 1.629992,0.734042 1.855291,0.06415 0.128184,-0.381137 0.04535,-0.510182 -0.675005,-1.051557 -1.733371,-1.302701 -1.581216,-1.181388 -1.606593,-1.28092 -0.07946,-0.311632 0.03092,-0.505531 0.331539,-0.582441 0.230602,-0.05899 0.116987,-0.127108 1.626971,0.975402 1.474274,1.076437 1.464885,1.070527 1.73616,1.092987 0.500036,0.0414 0.918083,-0.298991 1.063034,-0.865569 0.102415,-0.400313 0.03709,-0.497573 -0.649932,-0.967715 -1.495248,-1.023221 -1.63908,-1.129393 -1.704372,-1.258117 -0.173211,-0.341485 -0.03581,-0.605179 0.334539,-0.642036 0.111652,-0.01111 0.111652,-0.01111 1.512376,0.932735 1.418815,0.956037 1.575751,1.056625 1.735202,1.112185 0.976146,0.34013 1.688065,-0.810175 0.976229,-1.577375 -0.459001,-0.494698 -10.118326,-6.77259 -10.420483,-6.77259 -0.03914,0 -1.883203,1.084024 -1.991248,1.170543 -1.156083,0.92576 -3.341746,1.428341 -4.188509,0.963124 -1.309556,-0.719478 -1.523036,-2.320696 -0.572858,-4.296752 0.06571,-0.136658 0.119475,-0.256293 0.119475,-0.265856 0,-0.118576 -1.744122,0.0097 -1.813553,0.133407 -1.229023,2.189378 -2.1247981,5.292368 -2.3671193,8.199769 -0.011947,0.143345 -0.026649,0.320085 -0.03267,0.392755 -0.013838,0.167006 -0.059136,0.138431 0.5652354,0.356561 0.6295509,0.219943 0.5777539,0.216216 0.6617809,0.04761 0.597319,-1.198613 1.759702,-1.468623 3.024645,-0.702596 0.14997,0.09082 0.14997,0.09082 0.334955,0.006 0.806604,-0.36971 1.554817,-0.29858 2.125613,0.202075 0.09049,0.07937 0.10487,0.0855 0.155461,0.06629 1.510593,-0.573596 2.907776,0.02521 3.081804,1.32081 0.0189,0.140673 0.02112,0.142349 0.233594,0.175922 1.994749,0.31519 2.683697,1.820586 1.89452,4.139649 -0.01667,0.049 0.676795,0.537321 0.844581,0.594734 0.183514,0.06279 0.428042,0.06248 0.60901,-8.02e-4 z m 9.873536,-7.031695 c 0.099,-1.726949 -0.300497,-3.998176 -0.971231,-5.521732 -0.342765,-0.778581 -0.977595,-1.807934 -1.251082,-2.028584 -0.03561,-0.02873 -1.036452,0.09776 -1.529157,0.193262 -1.182964,0.229284 -1.444524,0.196633 -2.762359,-0.344837 -0.524764,-0.215614 -1.75801,-0.721265 -2.740546,-1.12367 -0.982537,-0.402405 -1.984644,-0.813191 -2.226905,-0.912858 -0.908585,-0.373796 -1.465997,-0.483628 -1.894751,-0.373338 -0.125514,0.03229 -0.162218,0.05071 -0.466222,0.233947 -0.100486,0.06057 -1.032272,0.607699 -2.070635,1.215843 -1.61604,0.946476 -1.902054,1.120849 -1.985999,1.210789 -1.149618,1.231735 -0.227738,2.838287 1.395352,2.431668 0.324105,-0.0812 0.38221,-0.114714 2.182633,-1.259081 1.754388,-1.115106 1.754388,-1.115106 1.816881,-1.083349 0.774826,0.393758 3.20531,1.849115 4.065896,2.434631 0.522433,0.355447 1.488853,1.012735 2.1476,1.46064 0.658746,0.447905 1.622504,1.103292 2.141686,1.456415 1.783391,1.212978 2.466946,1.67762 2.710095,1.842169 0.224654,0.15203 1.275477,0.51388 1.400724,0.482337 0.01144,-0.0029 0.02803,-0.140036 0.03802,-0.314252 z M 2.6361462,21.563068 c 0,-0.04962 0.00396,-0.06992 0.0088,-0.04511 0.00484,0.02481 0.00484,0.06541 0,0.09022 -0.00484,0.02481 -0.0088,0.0045 -0.0088,-0.04511 z m -0.019004,-0.441064 c 0,-0.0827 0.00358,-0.116531 0.00796,-0.07518 0.00438,0.04135 0.00438,0.109013 0,0.150363 -0.00438,0.04135 -0.00796,0.0075 -0.00796,-0.07518 z m 35.9519048,-0.06015 c 0,-0.0827 0.0036,-0.116531 0.008,-0.07518 0.0044,0.04135 0.0044,0.109013 0,0.150363 -0.0044,0.04135 -0.008,0.0075 -0.008,-0.07518 z M 2.617276,19.728645 c 7.37e-5,-0.08821 0.00364,-0.121806 0.00793,-0.07465 0.00429,0.04715 0.00423,0.119328 -1.34e-4,0.160386 -0.00436,0.04106 -0.00787,0.0025 -0.0078,-0.08573 z m 35.951905,0 c 0,-0.08821 0.0036,-0.121806 0.0079,-0.07465 0.0043,0.04715 0.0042,0.119328 -2.03e-4,0.160386 -0.0044,0.04106 -0.0079,0.0025 -0.0078,-0.08573 z m -0.02145,-0.441063 c 2.03e-4,-0.05513 0.0041,-0.07531 0.0088,-0.04483 0.0047,0.03047 0.0045,0.07558 -2.85e-4,0.100241 -0.0048,0.02466 -0.0086,-2.74e-4 -0.0085,-0.05541 z M 2.6445394,19.097123 C 2.8779484,11.746967 8.9280124,4.6867988 16.42307,3.0181622 c 0.92671,-0.2063149 2.194855,-0.3849405 2.685886,-0.3783226 0.162008,0.00218 0.148758,0.00483 -0.146714,0.029262 C 10.388454,3.3781672 3.4269131,10.227133 2.7023221,18.666083 c -0.056516,0.65822 -0.067629,0.74112 -0.057783,0.43104 z M 38.513339,18.942071 C 38.004927,10.543705 30.759814,3.3245645 22.189997,2.6772458 21.68619,2.6391909 21.561044,2.6209098 21.875341,2.6312815 c 7.332701,0.2419763 14.364746,6.0473612 16.197856,13.3723245 0.241438,0.964763 0.431884,2.153461 0.462702,2.888021 0.01443,0.3439 -0.0025,0.381759 -0.02256,0.05044 z M 19.343153,2.6230531 c 0.03086,-0.00461 0.07653,-0.00449 0.101502,2.736e-4 0.02497,0.00476 -2.79e-4,0.00853 -0.05611,0.00838 -0.05583,-1.506e-4 -0.07625,-0.00404 -0.0454,-0.00865 z m 0.772507,-0.020681 c 0.243598,-0.0032 0.63641,-0.0032 0.872915,8.7e-6 0.236505,0.00321 0.0372,0.00582 -0.442906,0.00582 -0.480103,-4.7e-6 -0.673607,-0.00263 -0.430009,-0.00583 z"     id="path38" /><path     style="fill:#222221;stroke-width:0.0201739"     d="m 19.936659,38.111357 c -0.100487,-0.0036 -0.296893,-0.01596 -0.436458,-0.0275 -0.139565,-0.01154 -0.377079,-0.03048 -0.527809,-0.04208 C 10.46197,37.386696 3.4254709,30.519922 2.7026989,22.164518 c -0.017646,-0.203992 -0.043116,-0.474644 -0.0566,-0.60145 -0.033446,-0.314535 -0.03291,-1.949202 7.533e-4,-2.295535 0.013933,-0.143345 0.039073,-0.418509 0.055866,-0.611474 C 3.1195994,13.865787 5.4262639,9.6709988 9.4109314,6.4568261 12.181477,4.2220068 15.265364,3.0014114 18.992693,2.6643865 c 0.487182,-0.044051 2.287791,-0.062559 2.710095,-0.027857 1.220826,0.1003202 1.738713,0.1648124 2.507137,0.3122127 6.90245,1.32404 12.675648,7.0553438 14.024788,13.9230148 0.286407,1.457926 0.424815,3.540482 0.308129,4.636286 -0.01085,0.101937 -0.03443,0.356752 -0.05238,0.566257 -0.718444,8.382458 -7.765443,15.329074 -16.198961,15.968211 -0.167477,0.01269 -0.382154,0.03169 -0.477058,0.04223 -0.174152,0.01933 -1.539574,0.03868 -1.877781,0.02662 z m 1.563126,-2.334156 c 7.002682,-0.40172 13.025128,-5.494507 14.380703,-12.160817 0.108701,-0.534555 0.198452,-0.477746 -0.74471,-0.471366 -0.974526,0.0066 -0.879463,0.03912 -0.864015,-0.295683 0.151723,-3.288351 -0.953005,-7.106562 -2.516889,-8.698979 -0.132133,-0.134543 -0.262741,-0.06335 1.235459,-0.673388 0.988348,-0.402434 1.298018,-0.536536 1.295949,-0.561208 C 34.272588,12.752416 33.28144,11.32755 32.714914,10.656773 29.917498,7.3445858 26.429993,5.4542469 22.360565,5.0443886 17.005278,4.5050228 12.409753,6.2669942 8.8205767,10.235758 8.2906316,10.82175 7.4069236,11.975337 7.4542894,12.019301 c 0.00988,0.0092 0.2463382,0.111346 0.5254679,0.227062 0.523145,0.216875 1.9750357,0.864141 2.0052095,0.893941 0.00935,0.0092 -0.03705,0.101522 -0.1031012,0.205093 -1.5313697,2.401258 -2.5427413,5.871338 -2.6361113,9.044665 -0.012012,0.40824 -0.016993,0.456099 -0.047474,0.456099 -0.01873,0 -0.4866664,-0.10375 -1.0398593,-0.230556 C 5.6052285,22.4888 5.1378432,22.38505 5.1197874,22.38505 c -0.044578,0 -0.042612,0.04503 0.019201,0.439674 1.2155047,7.760435 8.3539726,13.411801 16.3607966,12.952477 z"     id="path36" /></g></svg>