<?xml version="1.0" encoding="UTF-8" standalone="no"?>
<!-- Created with Inkscape (http://www.inkscape.org/) -->

<svg
   width="82.232498mm"
   height="122.60792mm"
   viewBox="0 0 82.232498 122.60792"
   version="1.1"
   id="svg1"
   xml:space="preserve"
   xmlns="http://www.w3.org/2000/svg"
   xmlns:svg="http://www.w3.org/2000/svg"><defs
     id="defs1" /><g
     id="layer1"
     transform="translate(-74.118105,-76.967741)"><g
       style="fill:none"
       id="g3"
       transform="matrix(0.26458333,0,0,0.26458333,74.1181,76.967745)"><rect
         width="310.79999"
         height="463.39999"
         rx="10"
         fill="#ffffff"
         id="rect14"
         x="0"
         y="0"
         style="display:inline;fill:#ffffff"
         transform="translate(-1.5748032e-6)" /><path
         id="rect2"
         d="m 310.79945,325.99943 -310.79883619586,34.5 v 92.90039 c 0,5.53999 4.46000569586,10 10.00000019586,10 H 300.79945 c 5.53999,0 10,-4.46001 10,-10 z"
         style="display:inline;fill:#685ec4;fill-opacity:1"
         transform="translate(-1.5748032e-6)" /><g
         mask="url(#mask0_0_1)"
         id="g14"
         style="display:inline;fill:none"
         transform="translate(-1.5748032e-6)"><path
           d="m 284.888,385.654 0.659,-1.888 2.833,0.988 1.35,-3.871 c -1.276,-0.693 -2.182,-1.715 -2.717,-3.066 -0.534,-1.352 -0.554,-2.736 -0.06,-4.152 l 1.976,-5.665 11.33,3.953 -1.976,5.665 c -0.494,1.416 -1.371,2.487 -2.63,3.213 -1.259,0.726 -2.604,0.962 -4.034,0.711 l -1.351,3.871 2.833,0.988 -0.659,1.888 z m 4.282,-12.274 7.554,2.635 0.988,-2.833 -7.553,-2.635 z"
           fill="#000000"
           fill-opacity="0.1"
           id="path3" /><path
           d="m 224.888,358.654 0.659,-1.888 2.833,0.988 1.35,-3.871 c -1.276,-0.692 -2.182,-1.714 -2.717,-3.066 -0.534,-1.352 -0.554,-2.735 -0.06,-4.152 l 1.976,-5.665 11.33,3.953 -1.976,5.665 c -0.494,1.416 -1.371,2.487 -2.63,3.213 -1.259,0.726 -2.604,0.963 -4.034,0.711 l -1.351,3.871 2.833,0.988 -0.659,1.889 z m 4.282,-12.274 7.554,2.635 0.988,-2.833 -7.553,-2.635 z"
           fill="#000000"
           fill-opacity="0.1"
           id="path4" /><path
           d="m 254.115,419.875 -1.917,-0.57 0.855,-2.876 -3.929,-1.169 c -0.633,1.307 -1.612,2.259 -2.937,2.856 -1.325,0.596 -2.707,0.681 -4.144,0.253 l -5.751,-1.711 3.423,-11.502 5.751,1.712 c 1.437,0.427 2.548,1.254 3.331,2.478 0.783,1.224 1.083,2.556 0.897,3.997 l 3.93,1.169 0.856,-2.875 1.917,0.57 z m -12.46,-3.708 2.282,-7.668 -2.876,-0.855 -2.282,7.667 z"
           fill="#000000"
           fill-opacity="0.1"
           id="path5" /><path
           d="m 262.32241,454.87551 0.206,-1.99 2.984,0.309 0.422,-4.078 c -1.401,-0.38 -2.518,-1.165 -3.35,-2.357 -0.831,-1.192 -1.17,-2.534 -1.015,-4.027 l 0.618,-5.968 11.936,1.236 -0.618,5.968 c -0.155,1.492 -0.761,2.737 -1.819,3.733 -1.059,0.996 -2.313,1.537 -3.762,1.621 l -0.423,4.078 2.984,0.309 -0.205,1.99 z m 1.339,-12.931 7.957,0.824 0.309,-2.984 -7.957,-0.824 z"
           fill="#000000"
           fill-opacity="0.1"
           id="path6" /><path
           d="m 187.60576,417.30505 -0.622,-1.901 2.852,-0.932 -1.274,-3.897 c -1.435,0.224 -2.775,-0.04 -4.019,-0.79 -1.245,-0.751 -2.1,-1.839 -2.567,-3.264 l -1.864,-5.704 11.407,-3.728 1.864,5.703 c 0.466,1.426 0.418,2.809 -0.143,4.15 -0.561,1.341 -1.487,2.345 -2.777,3.012 l 1.274,3.897 2.851,-0.932 0.622,1.901 z m -4.039,-12.356 7.604,-2.486 -0.932,-2.851 -7.604,2.485 z"
           fill="#000000"
           fill-opacity="0.1"
           id="path7" /><path
           d="m 169.558,377.103 -0.41,-1.958 2.937,-0.615 -0.84,-4.013 c -1.451,0.066 -2.754,-0.343 -3.909,-1.225 -1.155,-0.882 -1.886,-2.057 -2.194,-3.525 l -1.229,-5.873 11.746,-2.458 1.229,5.873 c 0.307,1.468 0.108,2.838 -0.596,4.109 -0.705,1.271 -1.735,2.168 -3.09,2.69 l 0.84,4.013 2.937,-0.615 0.409,1.958 z m -2.663,-12.725 7.83,-1.638 -0.614,-2.937 -7.83,1.639 z"
           fill="#000000"
           fill-opacity="0.1"
           id="path8" /><path
           d="m 168.42363,450.04044 -0.705,-1.872 2.807,-1.058 -1.445,-3.836 c -1.424,0.287 -2.774,0.083 -4.051,-0.612 -1.276,-0.694 -2.179,-1.743 -2.708,-3.147 l -2.115,-5.615 11.23,-4.23 2.115,5.615 c 0.528,1.404 0.542,2.788 0.041,4.152 -0.501,1.364 -1.381,2.408 -2.641,3.132 l 1.446,3.836 2.807,-1.057 0.705,1.872 z m -4.583,-12.166 7.487,-2.82 -1.058,-2.807 -7.486,2.82 z"
           fill="#000000"
           fill-opacity="0.1"
           id="path9" /><path
           d="m 94.813824,407.87079 -0.804,-1.831 2.746,-1.207 -1.649,-3.753 c -1.406,0.362 -2.765,0.231 -4.077,-0.394 -1.313,-0.625 -2.27,-1.624 -2.874,-2.997 l -2.413,-5.493 10.987,-4.827 2.413,5.493 c 0.603,1.374 0.691,2.755 0.264,4.144 -0.427,1.389 -1.25,2.479 -2.469,3.269 l 1.649,3.754 2.746996,-1.207 0.804,1.831 z m -5.229,-11.902 7.325,-3.218 -1.207,-2.746 -7.324,3.217 z"
           fill="#000000"
           fill-opacity="0.1"
           id="path10" /><path
           d="m 83.110659,437.5391 1.82,-0.83 1.244,2.73 3.7309,-1.7 c -0.3821,-1.401 -0.2696,-2.762 0.3374,-4.083 0.607,-1.32 1.5929,-2.292 2.9579,-2.914 l 5.4597,-2.488 4.976001,10.92 -5.459001,2.488 c -1.365,0.622 -2.745,0.729 -4.1402,0.32 -1.3949,-0.408 -2.4957,-1.216 -3.3024,-2.423 l -3.7309,1.7 1.2441,2.73 -1.8199,0.829 z m 11.8295,-5.392 3.3174,7.28 2.730001,-1.244 -3.317001,-7.28 z"
           fill="#000000"
           fill-opacity="0.1"
           id="path11" /><path
           d="m 34.309387,390.74532 0.9658,-1.752 2.6271,1.449 1.9798,-3.59 c -1.1424,-0.897 -1.864,-2.056 -2.1647,-3.478 -0.3007,-1.422 -0.0889,-2.79 0.6354,-4.103 l 2.8974,-5.254 10.5081,5.794 -2.8973,5.254 c -0.7244,1.314 -1.7681,2.223 -3.1312,2.727 -1.363,0.505 -2.7285,0.513 -4.0963,0.025 l -1.9799,3.591 2.6271,1.448 -0.9658,1.752 z m 6.2777,-11.384 7.0054,3.863 1.4487,-2.627 -7.0055,-3.863 z"
           fill="#000000"
           fill-opacity="0.1"
           id="path12" /><path
           d="m 29.1735,452.212 -1.5638,-1.247 1.8702,-2.345 -3.2059,-2.556 c -1.076,0.975 -2.3401,1.491 -3.7924,1.548 -1.4523,0.057 -2.7649,-0.382 -3.9378,-1.317 l -4.6915,-3.74 7.4806,-9.383 4.6915,3.74 c 1.1729,0.935 1.8933,2.117 2.1612,3.546 0.2678,1.428 0.0463,2.776 -0.6648,4.042 l 3.2058,2.556 1.8702,-2.346 1.5638,1.247 z m -10.1649,-8.104 4.9871,-6.255 -2.3457,-1.87 -4.9871,6.255 z"
           fill="#000000"
           fill-opacity="0.1"
           id="path13" /><defs
           id="defs14" /><path
           d="m 128.01992,408.23966 1.005,-1.7297 2.59454,1.50749 2.06001,-3.54487 c -1.12272,-0.92156 -1.81769,-2.09719 -2.08624,-3.52542 -0.26855,-1.42822 -0.0259,-2.79062 0.72711,-4.08785 l 3.01505,-5.18768 10.37536,6.03011 -3.01505,5.18768 c -0.75379,1.29656 -1.81814,2.18181 -3.19165,2.65565 -1.37425,0.47318 -2.73991,0.45095 -4.0963,-0.0674 l -2.06,3.54488 2.59454,1.50749 -1.00573,1.72903 z m 6.53261,-11.24021 6.91596,4.02013 1.50824,-2.59388 -6.91663,-4.01938 z"
           fill="#000000"
           fill-opacity="0.1"
           id="path16" /></g></g></g></svg>
