<svg width="23" height="23" viewBox="0 0 23 23" fill="none" xmlns="http://www.w3.org/2000/svg">
	<path d="M22.3892 11.7455C22.4086 13.9691 21.7685 16.1482 20.5503 18.0065C19.332 19.8647 17.5905 21.3183 15.5468 22.1827C13.503 23.0471 11.2491 23.2833 9.0712 22.8615C6.89327 22.4396 4.88946 21.3786 3.31408 19.8132C1.73871 18.2478 0.662779 16.2485 0.222854 14.069C-0.21707 11.8896 -0.00115965 9.62827 0.843183 7.57204C1.68753 5.51582 3.12223 3.7574 4.96523 2.51995C6.80823 1.2825 8.97642 0.621811 11.1946 0.621726C14.1485 0.615902 16.9845 1.78289 19.0823 3.86747C21.1801 5.95204 22.3691 8.78456 22.3892 11.7455ZM21.3034 11.7455C21.267 10.1718 20.8734 8.62701 20.1525 7.22853C19.8754 7.56611 19.5663 7.87595 19.2295 8.1537C18.7592 8.54702 18.2366 8.87303 17.6769 9.12241C17.5248 9.12241 17.2968 9.12241 17.1991 9.12241C17.0114 9.20248 16.8193 9.27153 16.6236 9.32921C16.3413 9.48159 16.287 9.6122 16.287 9.72105C16.2971 9.76744 16.3196 9.81019 16.3522 9.84471C16.3847 9.87923 16.426 9.90421 16.4716 9.91697C16.5609 10.0317 16.6306 10.1604 16.6779 10.2979C16.6975 10.3654 16.6975 10.4372 16.6779 10.5047C16.7865 10.5047 16.7865 10.5809 16.7865 10.5809C16.7865 10.5809 16.7865 10.6898 16.9059 10.6898C17.0919 10.7269 17.2661 10.8087 17.4136 10.9281C17.5611 11.0475 17.6775 11.201 17.7529 11.3755C17.7757 11.5525 17.7757 11.7318 17.7529 11.9088C17.7006 12.1798 17.5974 12.4384 17.4488 12.6707C17.3934 12.8285 17.3605 12.9934 17.3511 13.1605V13.683C17.3629 13.9328 17.3183 14.182 17.2208 14.4122C17.0885 14.9841 16.767 15.4943 16.3087 15.8598C16.2545 16.034 16.1024 16.0884 16.059 16.2408C15.8462 16.445 15.6699 16.6843 15.5378 16.9483C15.3098 17.1986 15.1144 17.5795 14.8321 17.917C14.4436 18.3753 13.9182 18.6959 13.3337 18.8312H13.1491C12.8077 18.7936 12.4801 18.6753 12.1932 18.4861C11.9064 18.2968 11.6683 18.0421 11.4987 17.7428C11.233 17.3462 11.0532 16.8982 10.9709 16.4276C10.8886 15.957 10.9056 15.4744 11.0209 15.0108C11.0893 14.8264 11.1728 14.648 11.2706 14.4775C11.3259 14.3234 11.3589 14.1621 11.3684 13.9986C11.3684 13.868 11.1729 13.6612 10.9449 13.6176C10.7575 13.4571 10.535 13.3429 10.2955 13.2843C10.056 13.2257 9.8061 13.2243 9.56594 13.2802C9.33422 13.3682 9.08394 13.3953 8.83882 13.3591C8.59369 13.3229 8.36185 13.2246 8.16526 13.0734C7.89343 12.8562 7.67759 12.5768 7.53589 12.2586C7.39418 11.9404 7.33074 11.5927 7.35091 11.2449L7.1989 10.1564C7.1989 9.92785 7.06861 9.57955 7.25319 9.29656C7.37471 9.05114 7.58408 8.86069 7.83952 8.76322C8.26299 8.42581 8.80588 8.17547 9.33792 7.83805C9.71795 7.74009 10.098 7.51152 10.5866 7.40268C11.0167 7.43505 11.4424 7.51165 11.857 7.63125L12.085 7.74009C12.6181 7.81458 13.1589 7.81458 13.692 7.74009C14.2783 7.58771 14.2783 7.58771 14.2783 7.46799C14.2783 7.34826 14.1263 7.16322 14.072 6.97819C13.9716 6.73596 13.8441 6.50592 13.692 6.29247C13.692 6.18363 13.692 6.18363 13.54 6.18363C13.3879 6.18363 13.54 6.18363 13.3554 6.18363C13.1921 6.13308 13.0324 6.07126 12.8776 5.9986C12.6291 5.89169 12.4247 5.70269 12.2982 5.46308C12.1718 5.22346 12.131 4.94766 12.1827 4.68159C12.2865 4.25111 12.5311 3.8679 12.8776 3.59315C13.4023 3.08441 14.0222 2.68488 14.7018 2.41764C13.5969 1.93224 12.4008 1.69094 11.1946 1.71016C9.19488 1.7188 7.2426 2.32182 5.5848 3.44293C3.927 4.56404 2.63816 6.15287 1.88133 8.0084C1.12451 9.86393 0.933706 11.9028 1.33307 13.8671C1.73243 15.8313 2.70401 17.6327 4.12489 19.0433C5.54576 20.4539 7.3521 21.4104 9.31536 21.7917C11.2786 22.173 13.3106 21.9621 15.1542 21.1855C16.9979 20.4089 18.5703 19.1016 19.6726 17.429C20.7749 15.7564 21.3576 13.7937 21.3468 11.7891L21.3034 11.7455ZM16.0373 2.97275C15.9904 3.01052 15.9365 3.03862 15.8788 3.05544C15.821 3.07225 15.7605 3.07744 15.7007 3.07071C14.9104 3.384 14.1768 3.82524 13.5291 4.37683C13.4577 4.42436 13.3993 4.48916 13.3595 4.56525C13.3196 4.64134 13.2996 4.72627 13.3011 4.8122C13.3075 4.87157 13.33 4.92804 13.3662 4.97547H13.5508C13.789 5.01669 14.0196 5.09374 14.2349 5.20404C14.3326 5.35642 14.5172 5.41084 14.5606 5.56322C14.7766 5.84956 14.9588 6.16002 15.1035 6.48839C15.2468 6.76055 15.3562 7.04934 15.4292 7.34826C15.4292 8.43669 14.4629 8.7088 13.9743 8.75234C13.2634 8.94672 12.5136 8.94672 11.8027 8.75234H11.5964C11.3392 8.58644 11.0275 8.52785 10.7277 8.58907C10.4161 8.6183 10.1171 8.72696 9.85911 8.90472C9.38136 9.13329 8.94704 9.38363 8.46929 9.6122C8.46929 9.72105 8.30642 9.76458 8.30642 9.76458V10.102L8.46929 11.1142C8.56701 11.8544 8.6973 12.1374 8.84932 12.2027C9.02392 12.2469 9.20675 12.2469 9.38136 12.2027C10.12 12.0242 10.899 12.1414 11.553 12.5292C11.8012 12.6598 12.0199 12.8403 12.1955 13.0594C12.3711 13.2785 12.4998 13.5315 12.5736 13.8027C12.5368 14.2108 12.438 14.6109 12.2804 14.9891C12.2338 15.0251 12.196 15.0713 12.1697 15.124C12.1433 15.1768 12.1292 15.2348 12.1284 15.2938C12.0332 15.6102 12.0111 15.9442 12.0637 16.2705C12.1164 16.5967 12.2425 16.9067 12.4324 17.1768C12.5062 17.3368 12.6199 17.475 12.7626 17.578C12.9053 17.6809 13.0721 17.7452 13.2468 17.7646C13.5246 17.6265 13.7663 17.4253 13.9526 17.1768C14.2186 16.9634 14.4214 16.6811 14.5389 16.3605C14.7191 16.0532 14.9148 15.7553 15.1252 15.468C15.2772 15.2938 15.4618 15.185 15.5053 15.0326C15.8115 14.7929 16.0508 14.4779 16.2002 14.1183C16.2216 13.9594 16.2216 13.7983 16.2002 13.6394C16.1567 13.4019 16.1567 13.1585 16.2002 12.921C16.2545 12.6598 16.3848 12.4313 16.439 12.2353C16.5332 12.089 16.5857 11.9196 16.5911 11.7455H16.6236C16.3512 11.6865 16.1087 11.5322 15.9396 11.3102C15.873 11.2579 15.8182 11.1921 15.7789 11.117C15.7396 11.042 15.7166 10.9594 15.7116 10.8748C15.6883 10.7594 15.6317 10.6533 15.5487 10.57C15.3795 10.3968 15.2499 10.1888 15.1687 9.9605C15.1429 9.62464 15.2221 9.28908 15.3953 9.0004C15.5685 8.71173 15.827 8.48427 16.135 8.34962C16.3817 8.20632 16.6647 8.13823 16.9494 8.1537C17.1216 8.12053 17.2869 8.05794 17.438 7.96867C17.8588 7.77318 18.2529 7.52444 18.6106 7.22853C18.8506 7.03798 19.0626 6.81447 19.2404 6.56458C19.3162 6.49878 19.3761 6.41659 19.4156 6.32421C19.4551 6.23182 19.4732 6.13165 19.4684 6.03125C18.5995 4.7468 17.4286 3.69642 16.059 2.97275H16.0373Z" fill="black"/>
</svg>
	