<svg width="21" height="26" viewBox="0 0 21 26" fill="none" xmlns="http://www.w3.org/2000/svg">
	<path d="M6.32949 8.6625C6.34264 9.10147 6.26374 9.53816 6.09826 9.94232C5.93278 10.3465 5.68466 10.7084 5.37111 11.0031C4.76245 11.6086 3.94961 11.9423 3.10682 11.9328C2.69166 11.9372 2.28057 11.8475 1.90222 11.6699C1.52388 11.4924 1.1874 11.2312 0.916248 10.9047C0.338585 10.3117 0.00936068 9.506 -1.33674e-06 8.6625C-0.00746731 8.23057 0.0709908 7.8017 0.230462 7.40271C0.389933 7.00372 0.626984 6.64322 0.92678 6.34375C1.2245 6.03701 1.57805 5.79489 1.9668 5.63152C2.35555 5.46815 2.77173 5.38679 3.19107 5.39219C3.60888 5.38455 4.02356 5.46824 4.4082 5.63782C4.79285 5.80741 5.13886 6.0591 5.42377 6.37656C5.71295 6.67634 5.94192 7.03278 6.09739 7.42519C6.25287 7.8176 6.33176 8.23817 6.32949 8.6625ZM10.0471 15.225C10.055 15.6602 9.9768 16.0925 9.81739 16.4951C9.65798 16.8977 9.42075 17.262 9.12036 17.5656C8.83322 17.8756 8.4878 18.121 8.10554 18.2866C7.72328 18.4522 7.31233 18.5344 6.89819 18.5281C6.47752 18.5351 6.06033 18.4479 5.67504 18.2724C5.28976 18.0968 4.94542 17.8371 4.6655 17.5109C4.08053 16.8926 3.75492 16.059 3.75978 15.1922C3.75373 14.7649 3.83509 14.3412 3.99848 13.949C4.16188 13.5568 4.40359 13.2051 4.70762 12.9172C4.99882 12.6195 5.34404 12.3849 5.72325 12.2268C6.10246 12.0688 6.50811 11.9906 6.91667 11.9967C7.32522 12.0028 7.72854 12.0931 8.10322 12.2624C8.47789 12.4317 8.81647 12.6766 9.0993 12.9828C9.40284 13.2758 9.64399 13.6315 9.80723 14.0271C9.97047 14.4227 10.0522 14.8493 10.0471 15.2797V15.225ZM13.6489 8.6625C13.649 9.50764 13.3264 10.3183 12.752 10.917C12.1775 11.5156 11.398 11.8534 10.5843 11.8562C9.96741 11.8495 9.36597 11.6553 8.85413 11.2977C8.34229 10.9402 7.94244 10.4348 7.70391 9.84397C7.46538 9.25315 7.3986 8.60274 7.51182 7.97297C7.62503 7.3432 7.91329 6.76163 8.34102 6.3C8.62303 5.98322 8.96509 5.73044 9.3457 5.55756C9.72631 5.38468 10.1372 5.29544 10.5527 5.29544C10.9681 5.29544 11.379 5.38468 11.7596 5.55756C12.1402 5.73044 12.4823 5.98322 12.7643 6.3C13.0594 6.62585 13.2895 7.00912 13.4413 7.42772C13.5931 7.84633 13.6637 8.292 13.6489 8.73906V8.6625ZM13.6489 21.8969C13.6517 22.32 13.5708 22.7392 13.4114 23.1286C13.252 23.518 13.0175 23.8694 12.7222 24.1609C12.4452 24.471 12.1095 24.7184 11.7362 24.8876C11.3629 25.0567 10.96 25.144 10.5527 25.144C10.1454 25.144 9.74245 25.0567 9.36914 24.8876C8.99583 24.7184 8.66016 24.471 8.38315 24.1609C8.08923 23.8625 7.85569 23.506 7.69624 23.1125C7.5368 22.7191 7.45467 22.2964 7.45467 21.8695C7.45467 21.4426 7.5368 21.02 7.69624 20.6265C7.85569 20.233 8.08923 19.8766 8.38315 19.5781C8.67208 19.2601 9.02181 19.0082 9.40991 18.8387C9.79802 18.6692 10.2159 18.5858 10.6369 18.5937C11.0542 18.5869 11.4672 18.6824 11.8424 18.8724C12.2175 19.0625 12.5442 19.3417 12.7959 19.6875C13.3323 20.3203 13.6346 21.1305 13.6489 21.9734V21.8969ZM11.6374 4.21094H9.53109V0H11.6374V4.21094ZM17.2929 15.3562C17.3014 15.7867 17.2234 16.2143 17.0639 16.6117C16.9043 17.009 16.6666 17.3675 16.3661 17.6641C15.8061 18.2437 15.0503 18.5734 14.2598 18.5828C13.8252 18.594 13.394 18.5011 12.9995 18.3115C12.6051 18.1218 12.2579 17.8404 11.985 17.4891C11.4451 16.8994 11.1468 16.1152 11.153 15.3016C11.1459 14.8743 11.2215 14.4498 11.3753 14.0534C11.529 13.657 11.7578 13.2967 12.0481 12.9937C12.3301 12.6797 12.673 12.4315 13.0543 12.2656C13.4356 12.0997 13.8465 12.0198 14.2598 12.0312C14.6792 12.0146 15.0968 12.0965 15.4816 12.2707C15.8663 12.4449 16.2082 12.707 16.4819 13.0375C17.0248 13.6761 17.3146 14.5046 17.2929 15.3562ZM21.0105 9.57031C20.8025 10.2705 20.3829 10.8826 19.8139 11.316C19.2449 11.7493 18.5567 11.981 17.851 11.9766C17.4249 11.9855 17.0018 11.9005 16.6096 11.727C16.2175 11.5536 15.8653 11.2956 15.5762 10.9703C15.004 10.3655 14.6794 9.55412 14.6705 8.70625C14.6602 8.27674 14.7396 7.85 14.9032 7.45539C15.0668 7.06078 15.3108 6.70766 15.6184 6.42031C16.2188 5.82479 17.0209 5.49867 17.851 5.5125C18.5519 5.52796 19.2312 5.76722 19.7965 6.19775C20.3618 6.62828 20.7857 7.22919 21.0105 7.91875V9.57031Z" fill="black"/>
</svg>
	