<svg width="21" height="21" viewBox="0 0 21 21" fill="none" xmlns="http://www.w3.org/2000/svg">
	<path d="M9.67108 15.75H11.3289V9.39473H9.67108V15.75ZM10.5 7.50304C10.7529 7.50304 10.965 7.4175 11.1361 7.2464C11.3071 7.07531 11.3927 6.86329 11.3927 6.61035C11.3927 6.35743 11.3071 6.14541 11.1361 5.9743C10.965 5.8032 10.7529 5.71765 10.5 5.71765C10.2471 5.71765 10.035 5.8032 9.86395 5.9743C9.69285 6.14541 9.6073 6.35743 9.6073 6.61035C9.6073 6.86329 9.69285 7.07531 9.86395 7.2464C10.035 7.4175 10.2471 7.50304 10.5 7.50304ZM10.5019 21C9.0496 21 7.68456 20.7244 6.40673 20.1733C5.12888 19.6221 4.01733 18.8741 3.07209 17.9293C2.12683 16.9845 1.3785 15.8734 0.827098 14.5961C0.2757 13.3189 0 11.9541 0 10.5019C0 9.04961 0.27558 7.68456 0.826739 6.40673C1.3779 5.12888 2.12589 4.01733 3.07071 3.07209C4.01554 2.12683 5.1266 1.3785 6.40388 0.827099C7.68115 0.275701 9.0459 0 10.4981 0C11.9504 0 13.3154 0.275581 14.5933 0.82674C15.8711 1.3779 16.9827 2.12589 17.9279 3.07071C18.8732 4.01554 19.6215 5.1266 20.1729 6.40388C20.7243 7.68115 21 9.0459 21 10.4981C21 11.9504 20.7244 13.3154 20.1733 14.5933C19.6221 15.8711 18.8741 16.9827 17.9293 17.9279C16.9845 18.8732 15.8734 19.6215 14.5961 20.1729C13.3189 20.7243 11.9541 21 10.5019 21ZM10.5 19.3421C12.9684 19.3421 15.0592 18.4855 16.7724 16.7724C18.4855 15.0592 19.3421 12.9684 19.3421 10.5C19.3421 8.03157 18.4855 5.94078 16.7724 4.22762C15.0592 2.51445 12.9684 1.65787 10.5 1.65787C8.03157 1.65787 5.94078 2.51445 4.22761 4.22762C2.51445 5.94078 1.65787 8.03157 1.65787 10.5C1.65787 12.9684 2.51445 15.0592 4.22761 16.7724C5.94078 18.4855 8.03157 19.3421 10.5 19.3421Z" fill="black"/>
</svg>
	